<svg width="29" height="29" viewBox="0 0 29 29" fill="none" xmlns="http://www.w3.org/2000/svg">
<path d="M11.0882 20V19.0412L14.6891 15.0994C15.1117 14.6378 15.4597 14.2365 15.7331 13.8956C16.0066 13.5511 16.209 13.228 16.3404 12.9261C16.4753 12.6207 16.5428 12.3011 16.5428 11.9673C16.5428 11.5838 16.4505 11.2518 16.2658 10.9712C16.0847 10.6907 15.8361 10.4741 15.5201 10.3214C15.204 10.1687 14.8489 10.0923 14.4547 10.0923C14.0357 10.0923 13.6699 10.1793 13.3574 10.3533C13.0485 10.5238 12.8088 10.7635 12.6383 11.0724C12.4714 11.3814 12.388 11.7436 12.388 12.1591H11.1309C11.1309 11.5199 11.2782 10.9588 11.573 10.4759C11.8677 9.9929 12.269 9.61648 12.7768 9.34659C13.2882 9.0767 13.8617 8.94176 14.4973 8.94176C15.1365 8.94176 15.7029 9.0767 16.1966 9.34659C16.6902 9.61648 17.0772 9.98047 17.3578 10.4386C17.6383 10.8967 17.7786 11.4062 17.7786 11.9673C17.7786 12.3686 17.7058 12.761 17.5602 13.1445C17.4181 13.5245 17.1696 13.9489 16.8145 14.4176C16.4629 14.8828 15.9746 15.451 15.3496 16.1222L12.8993 18.7429V18.8281H17.9703V20H11.0882Z" fill="black"/>
<path d="M8 0.75H21.001C25.005 0.750033 28.251 3.99596 28.251 8V21.001C28.2509 25.005 25.005 28.2509 21.001 28.251H8C3.99596 28.251 0.750033 25.005 0.75 21.001V8C0.75 3.99594 3.99594 0.75 8 0.75Z" stroke="black" stroke-width="1.5"/>
</svg>
