<svg width="36" height="35" viewBox="0 0 36 35" fill="none" xmlns="http://www.w3.org/2000/svg">
<path d="M12.4707 0.5C6.11943 0.5 0.970703 5.64872 0.970703 12V26.2137C0.970703 27.0422 1.64228 27.7137 2.4707 27.7137C3.29913 27.7137 3.9707 27.0422 3.9707 26.2137V12C3.9707 7.30558 7.77628 3.5 12.4707 3.5H26.4964C27.3248 3.5 27.9964 2.82843 27.9964 2C27.9964 1.17157 27.3248 0.5 26.4964 0.5H12.4707Z" fill="black"/>
<path fill-rule="evenodd" clip-rule="evenodd" d="M31.2758 7.58652C24.7939 6.86207 18.1476 6.86207 11.6657 7.58652C9.81911 7.7929 8.33524 9.24609 8.11759 11.107C7.34882 17.6799 7.34882 24.3201 8.11759 30.893C8.33524 32.7539 9.81911 34.2071 11.6657 34.4135C18.1476 35.1379 24.7939 35.1379 31.2758 34.4135C33.1224 34.2071 34.6062 32.7539 34.8239 30.893C35.5926 24.3201 35.5926 17.6799 34.8239 11.107C34.6062 9.24609 33.1224 7.7929 31.2758 7.58652ZM11.9989 10.568C18.2593 9.86826 24.6821 9.86826 30.9426 10.568C31.4173 10.621 31.7905 10.9964 31.8442 11.4555C32.5859 17.7969 32.5859 24.2031 31.8442 30.5445C31.7905 31.0036 31.4173 31.379 30.9426 31.432C24.6821 32.1317 18.2593 32.1317 11.9989 31.432C11.5242 31.379 11.151 31.0036 11.0973 30.5445C10.3556 24.2031 10.3556 17.7969 11.0973 11.4555C11.151 10.9964 11.5242 10.621 11.9989 10.568Z" fill="black"/>
</svg>
