<svg width="24" height="20" viewBox="0 0 24 20" fill="none" xmlns="http://www.w3.org/2000/svg">
<path d="M7.25098 0.725586H16.748C20.3523 0.725586 23.2742 3.64682 23.2744 7.25098V12.3271C23.2744 15.9315 20.3524 18.8535 16.748 18.8535H7.25098C3.64682 18.8533 0.725586 15.9314 0.725586 12.3271V7.25098C0.725835 3.64697 3.64697 0.725833 7.25098 0.725586Z" stroke="white" stroke-width="1.45029"/>
<path d="M23.2047 7.13477H19.7311C18.2648 7.13477 17.0758 8.32375 17.0758 9.79004C17.0759 11.2562 18.2649 12.4443 19.7311 12.4443H23.2047V13.8955H19.7311L19.5192 13.8896C17.4202 13.783 15.7368 12.1 15.6305 10.001L15.6256 9.79004C15.6256 7.59377 17.3503 5.79961 19.5192 5.68945L19.7311 5.68457H23.2047V7.13477Z" fill="white"/>
<rect x="0.362572" y="0.362572" width="2.22098" height="10.1988" transform="matrix(-4.37114e-08 -1 -1 4.37114e-08 14.6198 15.2735)" stroke="#FF7272" stroke-width="0.725143" stroke-linejoin="round"/>
<rect x="0.362572" y="0.362572" width="2.22098" height="10.1988" transform="matrix(-4.37114e-08 -1 -1 4.37114e-08 14.6198 11.6475)" stroke="#FF7272" stroke-width="0.725143" stroke-linejoin="round"/>
<rect x="0.362572" y="0.362572" width="2.22098" height="10.1988" transform="matrix(-4.37114e-08 -1 -1 4.37114e-08 14.6198 7.90483)" stroke="#FF7272" stroke-width="0.725143" stroke-linejoin="round"/>
</svg>
