<svg width="22" height="22" viewBox="0 0 22 22" fill="none" xmlns="http://www.w3.org/2000/svg">
<path fill-rule="evenodd" clip-rule="evenodd" d="M8.95135 2.14384C9.44363 1.65156 10.1113 1.375 10.8075 1.375H11.1925C11.8887 1.375 12.5564 1.65156 13.0487 2.14384C13.5409 2.63613 13.8175 3.30381 13.8175 4L13.8175 4.1566C13.8175 4.15685 13.8175 4.15709 13.8175 4.15734C13.8178 4.31053 13.8583 4.46096 13.935 4.59359C14.0117 4.72644 14.1221 4.83676 14.255 4.91348C14.2558 4.91392 14.2565 4.91436 14.2573 4.91481L14.6313 5.13223C14.6316 5.13241 14.6319 5.13259 14.6322 5.13277C14.765 5.20922 14.9155 5.24946 15.0688 5.24946C15.2223 5.24946 15.3732 5.20903 15.5063 5.13223C15.5148 5.12732 15.5233 5.12256 15.532 5.11794L15.6517 5.0541C16.2511 4.71316 16.9609 4.62171 17.6275 4.79997C18.2993 4.9796 18.8724 5.41845 19.2209 6.02019L19.4142 6.35403C19.7617 6.95639 19.8559 7.672 19.6763 8.34378C19.4973 9.01317 19.0609 9.58453 18.4625 9.93342L18.3364 10.0091C18.3322 10.0116 18.328 10.0141 18.3237 10.0165C18.1902 10.0936 18.0794 10.2046 18.0026 10.3383C17.9258 10.472 17.8856 10.6236 17.8862 10.7778C17.8863 10.7789 17.8863 10.7801 17.8863 10.7813V11.2188C17.8863 11.2199 17.8863 11.2211 17.8862 11.2222C17.8856 11.3764 17.9258 11.528 18.0026 11.6617C18.0774 11.7919 18.1844 11.9005 18.3132 11.9773L18.4293 12.0392C18.4383 12.044 18.4472 12.049 18.4561 12.0541C19.0578 12.4026 19.4967 12.9757 19.6763 13.6475C19.8555 14.3178 19.7621 15.0317 19.4165 15.6332L19.2259 15.9712C19.2242 15.9741 19.2226 15.9769 19.2209 15.9798C18.8724 16.5815 18.2993 17.0204 17.6275 17.2C16.9609 17.3783 16.2511 17.2868 15.6517 16.9459L15.532 16.8821C15.5233 16.8774 15.5148 16.8727 15.5063 16.8678C15.3732 16.791 15.2223 16.7505 15.0688 16.7505C14.9155 16.7505 14.765 16.7908 14.6322 16.8672C14.6319 16.8674 14.6316 16.8676 14.6313 16.8678L14.2563 17.0858L14.255 17.0865C14.1221 17.1632 14.0117 17.2736 13.935 17.4064C13.8583 17.539 13.8178 17.6895 13.8175 17.8427C13.8175 17.8429 13.8175 17.8432 13.8175 17.8434L13.8175 18C13.8175 18.6962 13.5409 19.3639 13.0487 19.8562C12.5564 20.3484 11.8887 20.625 11.1925 20.625H10.8075C10.1113 20.625 9.44363 20.3484 8.95135 19.8562C8.45907 19.3639 8.1825 18.6962 8.1825 18L8.1825 17.8434C8.1825 17.8433 8.1825 17.8431 8.1825 17.843C8.18227 17.6897 8.14177 17.5391 8.06505 17.4064C7.98826 17.2736 7.87789 17.1632 7.745 17.0865C7.74424 17.0861 7.74347 17.0856 7.74271 17.0852L7.36875 16.8678C7.36844 16.8676 7.36813 16.8674 7.36782 16.8672C7.23503 16.7908 7.08449 16.7505 6.93125 16.7505C6.77766 16.7505 6.62677 16.791 6.49375 16.8678C6.48526 16.8727 6.47668 16.8774 6.46802 16.8821L6.3483 16.9459C5.74886 17.2868 5.03909 17.3783 4.37247 17.2C3.70069 17.0204 3.12763 16.5815 2.7791 15.9798L2.58582 15.646C2.23835 15.0436 2.14409 14.328 2.32372 13.6562C2.50272 12.9868 2.9391 12.4154 3.53755 12.0666L3.66357 11.9909C3.66778 11.9884 3.67201 11.9859 3.67626 11.9835C3.80979 11.9064 3.92058 11.7954 3.99741 11.6617C4.07423 11.528 4.11437 11.3764 4.11376 11.2222C4.11376 11.2211 4.11375 11.2199 4.11375 11.2188V10.7756C4.11246 10.6237 4.07161 10.4747 3.99523 10.3433C3.91848 10.2113 3.80852 10.1016 3.67627 10.0253C3.65999 10.0159 3.64403 10.006 3.62839 9.99554L3.51776 9.92179C2.92948 9.57192 2.50074 9.00579 2.32372 8.34378C2.14409 7.672 2.23835 6.95639 2.58582 6.35403L2.7791 6.02019C3.12763 5.41846 3.70069 4.9796 4.37247 4.79997C5.03909 4.62171 5.74887 4.71316 6.34832 5.0541L6.46802 5.11794C6.47668 5.12256 6.48526 5.12732 6.49375 5.13223C6.62677 5.20903 6.77766 5.24946 6.93125 5.24946C7.08449 5.24946 7.23503 5.20922 7.36782 5.13277C7.36813 5.13259 7.36844 5.13241 7.36875 5.13223L7.74271 4.91481C7.74347 4.91436 7.74424 4.91392 7.745 4.91348C7.87789 4.83676 7.98826 4.72644 8.06505 4.59359C8.14177 4.46087 8.18227 4.31032 8.1825 4.15702C8.1825 4.15688 8.1825 4.15674 8.1825 4.1566L8.1825 4C8.1825 3.30381 8.45907 2.63613 8.95135 2.14384ZM10.8075 3.125C10.5754 3.125 10.3529 3.21719 10.1888 3.38128C10.0247 3.54538 9.9325 3.76794 9.9325 4L9.9325 4.1584C9.93203 4.61872 9.81052 5.07083 9.58015 5.46937C9.35002 5.86749 9.01935 6.19817 8.62125 6.4283C8.62084 6.42854 8.62042 6.42878 8.62 6.42902L8.24605 6.64644C8.24528 6.64689 8.24452 6.64733 8.24375 6.64777C7.8447 6.87816 7.39204 6.99946 6.93125 6.99946C6.47587 6.99946 6.02842 6.88099 5.63281 6.65583L5.51324 6.59206C5.50468 6.58749 5.49619 6.58278 5.48779 6.57794C5.287 6.46211 5.04847 6.43069 4.82454 6.49057C4.60067 6.55043 4.40969 6.69666 4.2935 6.89716C4.29347 6.89721 4.29344 6.89726 4.29341 6.89731L4.10169 7.22847C4.10159 7.22863 4.1015 7.2288 4.1014 7.22896C3.98582 7.42964 3.9545 7.66797 4.01432 7.89172C4.0742 8.11564 4.22049 8.30666 4.42106 8.42284C4.43697 8.43205 4.45258 8.44176 4.46787 8.45196L4.57802 8.5254C4.96283 8.75366 5.28306 9.0766 5.50812 9.46368C5.73837 9.85972 5.86097 10.3091 5.86374 10.7672C5.86375 10.769 5.86375 10.7707 5.86375 10.7725V11.2172C5.86525 11.6791 5.74484 12.1332 5.51468 12.5337C5.28554 12.9324 4.9557 13.2639 4.55824 13.495L4.43269 13.5703C4.42883 13.5726 4.42496 13.5749 4.42106 13.5772C4.22049 13.6933 4.0742 13.8844 4.01432 14.1083C3.9545 14.332 3.98581 14.5703 4.10137 14.771C4.10148 14.7712 4.10158 14.7714 4.10169 14.7715L4.29341 15.1027C4.29344 15.1027 4.29347 15.1028 4.2935 15.1028C4.40969 15.3033 4.60067 15.4496 4.82454 15.5094C5.04847 15.5693 5.287 15.5379 5.48779 15.4221C5.49619 15.4172 5.50468 15.4125 5.51324 15.4079L5.63282 15.3442C6.02843 15.119 6.47587 15.0005 6.93125 15.0005C7.39204 15.0005 7.8447 15.1218 8.24375 15.3522L8.24488 15.3529L8.62 15.571C8.62045 15.5712 8.62089 15.5715 8.62133 15.5717C9.01939 15.8019 9.35004 16.1325 9.58015 16.5306C9.81052 16.9292 9.93203 17.3813 9.9325 17.8416L9.9325 18C9.9325 18.2321 10.0247 18.4546 10.1888 18.6187C10.3529 18.7828 10.5754 18.875 10.8075 18.875H11.1925C11.4246 18.875 11.6471 18.7828 11.8112 18.6187C11.9753 18.4546 12.0675 18.2321 12.0675 18V17.8416C12.068 17.3813 12.1895 16.9292 12.4199 16.5306C12.65 16.1325 12.9807 15.8018 13.3788 15.5717C13.3792 15.5715 13.3796 15.5712 13.38 15.571L13.754 15.3536C13.7545 15.3532 13.7551 15.3529 13.7557 15.3526L13.7563 15.3522C14.1553 15.1218 14.608 15.0005 15.0688 15.0005C15.5241 15.0005 15.9716 15.119 16.3672 15.3442L16.4868 15.4079C16.4953 15.4125 16.5038 15.4172 16.5122 15.4221C16.713 15.5379 16.9515 15.5693 17.1755 15.5094C17.3981 15.4499 17.5881 15.305 17.7045 15.1063L17.8941 14.7701C17.8955 14.7677 17.8969 14.7652 17.8983 14.7628C18.0141 14.562 18.0456 14.3235 17.9857 14.0995C17.9269 13.8797 17.7848 13.6916 17.5899 13.5749L17.4745 13.5133C17.4658 13.5087 17.4573 13.5039 17.4488 13.499C17.0482 13.2678 16.7158 12.9347 16.4853 12.5337C16.2552 12.1333 16.1348 11.6792 16.1363 11.2174V10.7826C16.1348 10.3208 16.2552 9.86675 16.4853 9.46631C16.7145 9.06761 17.0443 8.73614 17.4417 8.50504L17.5673 8.4297C17.5712 8.42738 17.5751 8.4251 17.5789 8.42284C17.7795 8.30666 17.9258 8.11564 17.9857 7.89172C18.0455 7.6679 18.0142 7.42949 17.8985 7.22877C17.8984 7.22867 17.8984 7.22857 17.8983 7.22847L17.7066 6.89731C17.7066 6.89726 17.7065 6.89721 17.7065 6.89716C17.5903 6.69666 17.3993 6.55043 17.1755 6.49057C16.9515 6.43069 16.713 6.46211 16.5122 6.57794C16.5038 6.58278 16.4953 6.58749 16.4868 6.59206L16.3672 6.65584C15.9716 6.88099 15.5241 6.99946 15.0688 6.99946C14.608 6.99946 14.1553 6.87816 13.7563 6.64777C13.7555 6.64733 13.7547 6.64689 13.754 6.64644L13.38 6.42902C13.3796 6.4288 13.3792 6.42858 13.3788 6.42836C12.9807 6.19822 12.65 5.86752 12.4199 5.46937C12.1895 5.07083 12.068 4.61872 12.0675 4.1584V4C12.0675 3.76794 11.9753 3.54538 11.8112 3.38128C11.6471 3.21719 11.4246 3.125 11.1925 3.125H10.8075Z" fill="white"/>
<path fill-rule="evenodd" clip-rule="evenodd" d="M11 9.25C10.0335 9.25 9.25 10.0335 9.25 11C9.25 11.9665 10.0335 12.75 11 12.75C11.9665 12.75 12.75 11.9665 12.75 11C12.75 10.0335 11.9665 9.25 11 9.25ZM7.5 11C7.5 9.067 9.067 7.5 11 7.5C12.933 7.5 14.5 9.067 14.5 11C14.5 12.933 12.933 14.5 11 14.5C9.067 14.5 7.5 12.933 7.5 11Z" fill="white"/>
</svg>
