<svg width="20" height="20" viewBox="0 0 20 20" fill="none" xmlns="http://www.w3.org/2000/svg">
<circle cx="9.84766" cy="9.84766" r="8.84766" fill="#16A34A" stroke="#00712A" stroke-width="2"/>
<path d="M5.33496 6.25781C5.05882 6.25781 4.83496 6.48167 4.83496 6.75781C4.83496 7.03395 5.05882 7.25781 5.33496 7.25781V6.75781V6.25781ZM14.7149 7.11137C14.9101 6.9161 14.9101 6.59952 14.7149 6.40426L11.5329 3.22228C11.3376 3.02702 11.0211 3.02702 10.8258 3.22228C10.6305 3.41754 10.6305 3.73412 10.8258 3.92939L13.6542 6.75781L10.8258 9.58624C10.6305 9.7815 10.6305 10.0981 10.8258 10.2933C11.0211 10.4886 11.3376 10.4886 11.5329 10.2933L14.7149 7.11137ZM5.33496 6.75781V7.25781H14.3613V6.75781V6.25781H5.33496V6.75781Z" fill="#00712A"/>
<path d="M14.3613 13.4375C14.6375 13.4375 14.8613 13.2136 14.8613 12.9375C14.8613 12.6614 14.6375 12.4375 14.3613 12.4375L14.3613 12.9375L14.3613 13.4375ZM4.98141 12.5839C4.78615 12.7792 4.78615 13.0958 4.98141 13.2911L8.16339 16.473C8.35865 16.6683 8.67523 16.6683 8.87049 16.473C9.06576 16.2778 9.06576 15.9612 8.87049 15.7659L6.04207 12.9375L8.8705 10.1091C9.06576 9.91381 9.06576 9.59723 8.8705 9.40197C8.67523 9.2067 8.35865 9.2067 8.16339 9.40197L4.98141 12.5839ZM14.3613 12.9375L14.3613 12.4375L5.33496 12.4375L5.33496 12.9375L5.33496 13.4375L14.3613 13.4375L14.3613 12.9375Z" fill="#00712A"/>
</svg>
