<svg width="56" height="57" viewBox="0 0 56 57" fill="none" xmlns="http://www.w3.org/2000/svg">
<path fill-rule="evenodd" clip-rule="evenodd" d="M22.7374 5.30025C24.0267 3.9875 25.7754 3.25 27.5988 3.25H28.6071C30.4305 3.25 32.1792 3.9875 33.4685 5.30025C34.7578 6.61301 35.4821 8.39348 35.4821 10.25L35.4821 10.6676C35.4821 10.6683 35.4821 10.6689 35.4821 10.6696C35.4829 11.0781 35.5889 11.4792 35.7897 11.8329C35.9908 12.1872 36.2799 12.4813 36.628 12.6859C36.63 12.6871 36.632 12.6883 36.634 12.6895L37.6134 13.2693C37.6142 13.2698 37.615 13.2702 37.6158 13.2707C37.9636 13.4746 38.3579 13.5819 38.7592 13.5819C39.1615 13.5819 39.5567 13.4741 39.905 13.2693C39.9273 13.2562 39.9498 13.2435 39.9724 13.2312L40.2859 13.0609C41.8559 12.1518 43.7149 11.9079 45.4608 12.3832C47.2202 12.8623 48.7211 14.0325 49.6339 15.6372L50.1401 16.5274C51.0501 18.1337 51.297 20.042 50.8265 21.8334C50.3578 23.6184 49.2149 25.1421 47.6476 26.0725L47.3174 26.2741C47.3064 26.2809 47.2953 26.2875 47.2842 26.2941C46.9345 26.4997 46.6443 26.7957 46.4431 27.1521C46.2419 27.5086 46.1368 27.9129 46.1384 28.3241C46.1384 28.3272 46.1384 28.3302 46.1384 28.3333V29.5C46.1384 29.5031 46.1384 29.5062 46.1384 29.5093C46.1368 29.9204 46.2419 30.3247 46.4431 30.6812C46.639 31.0283 46.9192 31.318 47.2567 31.5228L47.5606 31.6878C47.5842 31.7007 47.6076 31.7139 47.6307 31.7276C49.2067 32.657 50.3561 34.1852 50.8265 35.9766C51.296 37.7641 51.0512 39.6679 50.1461 41.272L49.6469 42.1731C49.6426 42.1808 49.6383 42.1885 49.6339 42.1962C48.7211 43.8008 47.2202 44.9711 45.4608 45.4501C43.7149 45.9254 41.8559 45.6816 40.2859 44.7724L39.9724 44.6022C39.9498 44.5898 39.9273 44.5771 39.905 44.5641C39.5567 44.3593 39.1615 44.2514 38.7592 44.2514C38.3579 44.2514 37.9636 44.3588 37.6158 44.5626C37.615 44.5631 37.6142 44.5636 37.6134 44.5641L36.6314 45.1454L36.628 45.1474C36.2799 45.352 35.9908 45.6462 35.7897 46.0004C35.5889 46.3541 35.4829 46.7553 35.4821 47.1638C35.4821 47.1644 35.4821 47.1651 35.4821 47.1657L35.4821 47.5833C35.4821 49.4398 34.7578 51.2203 33.4685 52.5331C32.1792 53.8458 30.4305 54.5833 28.6071 54.5833H27.5988C25.7754 54.5833 24.0267 53.8458 22.7374 52.5331C21.4481 51.2203 20.7238 49.4398 20.7238 47.5833L20.7238 47.1657C20.7238 47.1654 20.7238 47.165 20.7238 47.1646C20.7232 46.7558 20.6171 46.3543 20.4162 46.0004C20.2151 45.6462 19.926 45.352 19.578 45.1474C19.576 45.1462 19.5739 45.145 19.5719 45.1438L18.5925 44.5641C18.5917 44.5636 18.5909 44.5631 18.5901 44.5626C18.2423 44.3588 17.848 44.2514 17.4467 44.2514C17.0444 44.2514 16.6493 44.3593 16.3009 44.5641C16.2786 44.5771 16.2561 44.5898 16.2335 44.6022L15.9199 44.7724C14.35 45.6816 12.491 45.9254 10.7451 45.4501C8.9857 44.9711 7.48484 43.8008 6.572 42.1962L6.0658 41.3059C5.15577 39.6996 4.90889 37.7913 5.37936 35.9999C5.84816 34.2148 6.99106 32.6912 8.55842 31.7608L8.88849 31.5592C8.89951 31.5524 8.91059 31.5458 8.92172 31.5393C9.27144 31.3337 9.5616 31.0377 9.76282 30.6812C9.96403 30.3247 10.0692 29.9204 10.0676 29.5093C10.0675 29.5062 10.0675 29.5031 10.0675 29.5V28.3182C10.0641 27.9131 9.95717 27.5157 9.75712 27.1654C9.5561 26.8134 9.26811 26.521 8.92175 26.3174C8.87912 26.2924 8.8373 26.2659 8.79635 26.2381L8.50661 26.0414C6.96588 25.1084 5.84298 23.5988 5.37936 21.8334C4.90889 20.042 5.15577 18.1337 6.0658 16.5274L6.572 15.6372C7.48484 14.0325 8.9857 12.8623 10.7451 12.3832C12.491 11.9079 14.35 12.1518 15.92 13.0609L16.2335 13.2312C16.2561 13.2435 16.2786 13.2562 16.3009 13.2693C16.6493 13.4741 17.0444 13.5819 17.4467 13.5819C17.848 13.5819 18.2423 13.4746 18.5901 13.2707C18.5909 13.2702 18.5917 13.2698 18.5925 13.2693L19.5719 12.6895C19.5739 12.6883 19.576 12.6871 19.578 12.6859C19.926 12.4813 20.2151 12.1872 20.4162 11.8329C20.6171 11.479 20.7232 11.0775 20.7238 10.6687C20.7238 10.6684 20.7238 10.668 20.7238 10.6676L20.7238 10.25C20.7238 8.39348 21.4481 6.61301 22.7374 5.30025ZM27.5988 7.91667C26.991 7.91667 26.4081 8.1625 25.9783 8.60008C25.5486 9.03767 25.3071 9.63116 25.3071 10.25L25.3071 10.6724C25.3059 11.8999 24.9876 13.1056 24.3843 14.1683C23.7816 15.23 22.9155 16.1118 21.8729 16.7255C21.8718 16.7261 21.8707 16.7268 21.8696 16.7274L20.8902 17.3072C20.8882 17.3084 20.8862 17.3095 20.8842 17.3107C19.8391 17.9251 18.6535 18.2485 17.4467 18.2485C16.254 18.2485 15.0821 17.9326 14.046 17.3322L13.7329 17.1622C13.7104 17.15 13.6882 17.1374 13.6662 17.1245C13.1403 16.8156 12.5156 16.7318 11.9291 16.8915C11.3428 17.0512 10.8426 17.4411 10.5383 17.9758C10.5382 17.9759 10.5382 17.976 10.5381 17.9762L10.0359 18.8592C10.0357 18.8597 10.0354 18.8601 10.0352 18.8606C9.73246 19.3957 9.65043 20.0313 9.80713 20.6279C9.96395 21.225 10.3471 21.7344 10.8724 22.0442C10.9141 22.0688 10.9549 22.0947 10.995 22.1219L11.2835 22.3177C12.2913 22.9264 13.13 23.7876 13.7194 24.8198C14.3225 25.8759 14.6436 27.0743 14.6508 28.2959C14.6509 28.3006 14.6509 28.3053 14.6509 28.31V29.4959C14.6548 30.7276 14.3394 31.9386 13.7366 33.0065C13.1365 34.0697 12.2726 34.9537 11.2317 35.5699L10.9028 35.7708C10.8927 35.777 10.8826 35.7831 10.8724 35.7891C10.3471 36.0989 9.96395 36.6083 9.80713 37.2054C9.65045 37.802 9.73245 38.4375 10.0351 38.9726C10.0354 38.9731 10.0357 38.9736 10.0359 38.9741L10.5381 39.8572C10.5382 39.8573 10.5382 39.8574 10.5383 39.8576C10.8426 40.3922 11.3428 40.7822 11.9291 40.9418C12.5156 41.1015 13.1403 41.0177 13.6662 40.7088C13.6882 40.6959 13.7104 40.6834 13.7329 40.6712L14.046 40.5011C15.0822 39.9007 16.254 39.5848 17.4467 39.5848C18.6535 39.5848 19.8391 39.9082 20.8842 40.5226L20.8871 40.5243L21.8696 41.1059C21.8708 41.1066 21.8719 41.1073 21.8731 41.108C22.9156 41.7217 23.7816 42.6034 24.3843 43.665C24.9876 44.7278 25.3059 45.9334 25.3071 47.1609L25.3071 47.5833C25.3071 48.2022 25.5486 48.7957 25.9783 49.2332C26.4081 49.6708 26.991 49.9167 27.5988 49.9167H28.6071C29.2149 49.9167 29.7978 49.6708 30.2276 49.2332C30.6573 48.7957 30.8988 48.2022 30.8988 47.5833V47.1609C30.9 45.9334 31.2183 44.7278 31.8216 43.665C32.4243 42.6033 33.2904 41.7215 34.3331 41.1078C34.3341 41.1072 34.3352 41.1066 34.3363 41.1059L35.3157 40.5261C35.3172 40.5253 35.3187 40.5244 35.3201 40.5235L35.3217 40.5226C36.3668 39.9082 37.5524 39.5848 38.7592 39.5848C39.9519 39.5848 41.1238 39.9007 42.1599 40.5011L42.473 40.6712C42.4955 40.6834 42.5177 40.6959 42.5397 40.7088C43.0656 41.0177 43.6903 41.1015 44.2768 40.9418C44.8597 40.7831 45.3575 40.3967 45.6623 39.8668L46.159 38.9703C46.1627 38.9637 46.1663 38.9572 46.17 38.9508C46.4733 38.4153 46.5556 37.7792 46.3988 37.1821C46.2448 36.5959 45.8728 36.0942 45.3622 35.783L45.0599 35.6188C45.0373 35.6065 45.0148 35.5938 44.9926 35.5807C43.9434 34.964 43.0729 34.076 42.4693 33.0065C41.8665 31.9387 41.5512 30.7279 41.555 29.4963V28.337C41.5512 27.1055 41.8665 25.8947 42.4693 24.8268C43.0694 23.7636 43.9332 22.8797 44.9742 22.2634L45.3031 22.0625C45.3132 22.0563 45.3233 22.0503 45.3335 22.0442C45.8588 21.7344 46.242 21.225 46.3988 20.6279C46.5555 20.0311 46.4734 19.3953 46.1704 18.86C46.1703 18.8598 46.1701 18.8595 46.17 18.8592L45.6678 17.9762C45.6678 17.976 45.6677 17.9759 45.6676 17.9757C45.3633 17.4411 44.8631 17.0512 44.2768 16.8915C43.6903 16.7318 43.0656 16.8156 42.5397 17.1245C42.5177 17.1374 42.4955 17.15 42.473 17.1622L42.1599 17.3322C41.1237 17.9326 39.9519 18.2485 38.7592 18.2485C37.5524 18.2485 36.3668 17.9251 35.3217 17.3107C35.3197 17.3095 35.3177 17.3084 35.3157 17.3072L34.3363 16.7274C34.3353 16.7268 34.3343 16.7262 34.3333 16.7256C33.2905 16.1119 32.4244 15.2301 31.8216 14.1683C31.2183 13.1056 30.9 11.8999 30.8988 10.6724V10.25C30.8988 9.63116 30.6573 9.03767 30.2276 8.60008C29.7978 8.1625 29.2149 7.91667 28.6071 7.91667H27.5988Z" fill="currentColor"/>
<path fill-rule="evenodd" clip-rule="evenodd" d="M28.1027 24.2507C25.5714 24.2507 23.5194 26.34 23.5194 28.9173C23.5194 31.4946 25.5714 33.584 28.1027 33.584C30.634 33.584 32.686 31.4946 32.686 28.9173C32.686 26.34 30.634 24.2507 28.1027 24.2507ZM18.936 28.9173C18.936 23.7627 23.0401 19.584 28.1027 19.584C33.1653 19.584 37.2694 23.7627 37.2694 28.9173C37.2694 34.072 33.1653 38.2507 28.1027 38.2507C23.0401 38.2507 18.936 34.072 18.936 28.9173Z" fill="currentColor"/>
</svg>
