<svg width="64" height="52" viewBox="0 0 64 52" fill="none" xmlns="http://www.w3.org/2000/svg">
<path d="M19.1182 1.91211H44.1562C53.6588 1.91221 61.3623 9.61559 61.3623 19.1182V32.5C61.3623 42.0026 53.6588 49.7059 44.1562 49.7061H19.1182C9.61553 49.7061 1.91211 42.0026 1.91211 32.5V19.1182C1.91211 9.61552 9.61552 1.91211 19.1182 1.91211Z" stroke="#464646" stroke-width="3.82357"/>
<path d="M61.177 18.8086H52.0188C48.153 18.8086 45.0188 21.9428 45.0188 25.8086C45.0191 29.6741 48.1532 32.8086 52.0188 32.8086H61.177V36.6318H52.0188L51.4622 36.6172C45.9279 36.3368 41.4899 31.8994 41.2092 26.3652L41.1956 25.8086C41.1956 20.0178 45.7433 15.2887 51.4622 14.999L52.0188 14.9854H61.177V18.8086Z" fill="#464646"/>
<rect x="0.955892" y="0.955892" width="3.21178" height="25.0192" transform="matrix(-4.37114e-08 -1 -1 4.37114e-08 36.6745 38.0846)" fill="#464646" stroke="#464646" stroke-width="1.91178" stroke-linejoin="round"/>
<rect x="0.955892" y="0.955892" width="3.21178" height="25.0192" transform="matrix(-4.37114e-08 -1 -1 4.37114e-08 36.6745 28.5251)" fill="#464646" stroke="#464646" stroke-width="1.91178" stroke-linejoin="round"/>
<rect x="0.955892" y="0.955892" width="3.21178" height="25.0192" transform="matrix(-4.37114e-08 -1 -1 4.37114e-08 36.6745 18.6589)" fill="#464646" stroke="#464646" stroke-width="1.91178" stroke-linejoin="round"/>
</svg>
