<svg width="65" height="52" viewBox="0 0 65 52" fill="none" xmlns="http://www.w3.org/2000/svg">
<rect x="2.86719" y="2.25488" width="59.2746" height="47.6188" rx="10" stroke="#464646" stroke-width="4"/>
<rect x="0.362572" y="0.362572" width="4.66886" height="25.702" rx="2.33443" transform="matrix(-4.37114e-08 -1 -1 4.37114e-08 38.2247 39.3355)" fill="#464646" stroke="#464646" stroke-width="0.725143" stroke-linejoin="round"/>
<rect x="0.362572" y="0.362572" width="4.66886" height="25.702" rx="2.33443" transform="matrix(-4.37114e-08 -1 -1 4.37114e-08 38.2247 29.7759)" fill="#464646" stroke="#464646" stroke-width="0.725143" stroke-linejoin="round"/>
<rect x="0.362572" y="0.362572" width="4.66886" height="25.702" rx="2.33443" transform="matrix(-4.37114e-08 -1 -1 4.37114e-08 38.2247 19.9087)" fill="#464646" stroke="#464646" stroke-width="0.725143" stroke-linejoin="round"/>
<path d="M62.0454 15.9673C62.0454 16.3677 61.7208 16.6924 61.3203 16.6924H49.314C46.1104 16.6926 43.5134 19.2896 43.5132 22.4932V29.6377C43.5134 32.8413 46.1104 35.4382 49.314 35.4385H61.3203C61.7208 35.4385 62.0454 35.7631 62.0454 36.1636C62.0454 36.564 61.7208 36.8887 61.3203 36.8887H49.314C45.4346 36.8884 42.2671 33.8419 42.0728 30.0107L42.063 29.6377V22.4932C42.0632 18.4887 45.3095 15.2424 49.314 15.2422H61.3203C61.7208 15.2422 62.0454 15.5668 62.0454 15.9673Z" fill="#464646"/>
<path d="M49.314 16.6924V15.6924H49.3139L49.314 16.6924ZM43.5132 22.4932L42.5132 22.4931V22.4932H43.5132ZM43.5132 29.6377H42.5132V29.6378L43.5132 29.6377ZM49.314 35.4385L49.3139 36.4385H49.314V35.4385ZM49.314 36.8887L49.3139 37.8887H49.314V36.8887ZM42.0728 30.0107L41.0731 30.0369L41.0734 30.0492L41.074 30.0614L42.0728 30.0107ZM42.063 29.6377H41.063V29.6508L41.0633 29.6639L42.063 29.6377ZM42.063 22.4932L41.063 22.4931V22.4932H42.063ZM49.314 15.2422V14.2422H49.3139L49.314 15.2422ZM61.3203 16.6924V15.6924H49.314V16.6924V17.6924H61.3203V16.6924ZM49.314 16.6924L49.3139 15.6924C45.5581 15.6927 42.5135 18.7373 42.5132 22.4931L43.5132 22.4932L44.5132 22.4932C44.5134 19.8419 46.6627 17.6926 49.314 17.6924L49.314 16.6924ZM43.5132 22.4932H42.5132V29.6377H43.5132H44.5132V22.4932H43.5132ZM43.5132 29.6377L42.5132 29.6378C42.5134 33.3936 45.5581 36.4382 49.3139 36.4385L49.314 35.4385L49.314 34.4385C46.6627 34.4383 44.5133 32.2889 44.5132 29.6376L43.5132 29.6377ZM49.314 35.4385V36.4385H61.3203V35.4385V34.4385H49.314V35.4385ZM61.3203 36.8887V35.8887H49.314V36.8887V37.8887H61.3203V36.8887ZM49.314 36.8887L49.314 35.8887C45.9699 35.8885 43.239 33.2621 43.0715 29.9601L42.0728 30.0107L41.074 30.0614C41.2952 34.4217 44.8992 37.8884 49.3139 37.8887L49.314 36.8887ZM42.0728 30.0107L43.0724 29.9846L43.0626 29.6115L42.063 29.6377L41.0633 29.6639L41.0731 30.0369L42.0728 30.0107ZM42.063 29.6377H43.063V22.4932H42.063H41.063V29.6377H42.063ZM42.063 22.4932L43.063 22.4932C43.0632 19.041 45.8618 16.2424 49.314 16.2422L49.314 15.2422L49.3139 14.2422C44.7572 14.2425 41.0633 17.9364 41.063 22.4931L42.063 22.4932ZM49.314 15.2422V16.2422H61.3203V15.2422V14.2422H49.314V15.2422ZM61.3203 15.2422V16.2422C61.1685 16.2422 61.0454 16.1191 61.0454 15.9673H62.0454H63.0454C63.0454 15.0145 62.2731 14.2422 61.3203 14.2422V15.2422ZM62.0454 36.1636H61.0454C61.0454 36.0117 61.1685 35.8887 61.3203 35.8887V36.8887V37.8887C62.2731 37.8887 63.0454 37.1163 63.0454 36.1636H62.0454ZM61.3203 35.4385V36.4385C61.1685 36.4385 61.0454 36.3154 61.0454 36.1636H62.0454H63.0454C63.0454 35.2108 62.2731 34.4385 61.3203 34.4385V35.4385ZM61.3203 16.6924V17.6924C62.2731 17.6924 63.0454 16.92 63.0454 15.9673H62.0454H61.0454C61.0454 15.8155 61.1685 15.6924 61.3203 15.6924V16.6924Z" fill="#464646"/>
</svg>
