<svg width="206" height="206" viewBox="0 0 206 206" fill="none" xmlns="http://www.w3.org/2000/svg">
<path d="M102.941 23.1357C125.688 23.1358 146.178 32.672 160.729 47.8906C162.664 49.938 164.533 52.1042 166.284 54.3359L103.002 117.589L39.7148 54.2715C41.2905 52.1054 43.1641 49.878 45.1484 47.8936L45.1504 47.8906C59.6484 32.6719 80.1933 23.1357 102.941 23.1357ZM152.301 80.7656C154.978 84.2129 156.526 88.5397 156.526 93.2949L156.522 93.8271C156.297 104.956 147.159 113.913 135.895 113.92C131.199 113.92 126.866 112.372 123.359 109.693L152.301 80.7656ZM82.46 109.626C79.0127 112.304 74.6811 113.851 69.9258 113.852H69.9248C58.5438 113.912 49.2941 104.664 49.2939 93.2275C49.2939 88.5395 50.8413 84.206 53.5195 80.6992L82.46 109.626ZM102.946 33.2754C84.1691 33.2755 66.7351 40.5132 53.666 53.7041L53.5713 53.7998L53.667 53.8955L102.851 103.065L102.946 103.161L103.042 103.065L152.228 53.8955L152.323 53.7998L152.229 53.7041C139.092 40.5135 121.725 33.2754 102.946 33.2754ZM23.1377 103.029C23.017 87.8732 27.2021 73.8074 34.4863 61.7959L47.1992 74.501C42.9396 79.6531 40.3877 86.1361 40.3877 93.3486C40.3877 109.647 53.6205 122.873 69.9258 122.873C77.078 122.873 83.6268 120.318 88.7803 116.06L102.846 130.117L102.941 130.213L103.037 130.117L117.1 116.06C122.252 120.319 128.742 122.873 135.955 122.873C152.26 122.873 165.493 109.647 165.493 93.3486C165.493 86.1962 162.94 79.6477 158.68 74.501L165.211 67.9785L171.394 61.7959C178.678 73.8612 182.864 87.927 182.864 103.03C182.864 147.163 147.095 182.864 103.002 182.864C58.9147 182.864 23.1378 147.102 23.1377 103.03V103.029Z" fill="white" stroke="#22D363" stroke-width="0.270931"/>
</svg>
