<svg width="206" height="206" viewBox="0 0 206 206" fill="none" xmlns="http://www.w3.org/2000/svg">
<mask id="backdrop-cut" maskUnits="userSpaceOnUse" x="0" y="0" width="206" height="206"><rect width="206" height="206" fill="white"/><path d="M190 180C190 187.732 183.732 194 176 194L133.612 194C125.88 194 119.612 187.732 119.612 180L119.612 151C119.612 143.268 125.88 137 133.612 137L176 137C183.732 137 190 143.268 190 151L190 180Z" fill="black"/></mask>
<mask id="excl-cut" maskUnits="userSpaceOnUse" x="0" y="0" width="206" height="206"><rect width="206" height="206" fill="white"/><path d="M101.736 178.781V175.505H104.909V178.781H101.736ZM102.172 174.033L101.508 163.727H105.116L104.473 174.033H102.172Z" fill="black"/></mask>
<path d="M102.941 23.1357C125.688 23.1358 146.178 32.672 160.729 47.8906C162.664 49.938 164.533 52.1042 166.284 54.3359L103.002 117.589L39.7148 54.2715C41.2905 52.1054 43.1641 49.878 45.1484 47.8936L45.1504 47.8906C59.6484 32.6719 80.1933 23.1357 102.941 23.1357ZM152.301 80.7656C154.978 84.2129 156.526 88.5397 156.526 93.2949L156.522 93.8271C156.297 104.956 147.159 113.913 135.895 113.92C131.199 113.92 126.866 112.372 123.359 109.693L152.301 80.7656ZM82.46 109.626C79.0127 112.304 74.6811 113.851 69.9258 113.852H69.9248C58.5438 113.912 49.2941 104.664 49.2939 93.2275C49.2939 88.5395 50.8413 84.206 53.5195 80.6992L82.46 109.626ZM102.946 33.2754C84.1691 33.2755 66.7351 40.5132 53.666 53.7041L53.5713 53.7998L53.667 53.8955L102.851 103.065L102.946 103.161L103.042 103.065L152.228 53.8955L152.323 53.7998L152.229 53.7041C139.092 40.5135 121.725 33.2754 102.946 33.2754ZM23.1377 103.029C23.017 87.8732 27.2021 73.8074 34.4863 61.7959L47.1992 74.501C42.9396 79.6531 40.3877 86.1361 40.3877 93.3486C40.3877 109.647 53.6205 122.873 69.9258 122.873C77.078 122.873 83.6268 120.318 88.7803 116.06L102.846 130.117L102.941 130.213L103.037 130.117L117.1 116.06C122.252 120.319 128.742 122.873 135.955 122.873C152.26 122.873 165.493 109.647 165.493 93.3486C165.493 86.1962 162.94 79.6477 158.68 74.501L165.211 67.9785L171.394 61.7959C178.678 73.8612 182.864 87.927 182.864 103.03C182.864 147.163 147.095 182.864 103.002 182.864C58.9147 182.864 23.1378 147.102 23.1377 103.03V103.029Z" fill="white" stroke="#22D363" stroke-width="0.270931" mask="url(#backdrop-cut)"/>
<g transform="translate(46.612 0)">
<path d="M90 187.5L126.388 187.5C131.082 187.5 134.888 183.694 134.888 179L134.888 153C134.888 148.306 131.082 144.5 126.388 144.5L90 144.5C85.3056 144.5 81.5 148.306 81.5 153L81.5 179C81.5 183.694 85.3056 187.5 90 187.5Z" stroke="#FF7272" stroke-width="3"/>
<mask id="badge-glyph-dof" maskUnits="userSpaceOnUse" x="123.388" y="154.75" width="13" height="22" fill="black">
<rect fill="white" x="123.388" y="154.75" width="13" height="22"/>
<path d="M133.471 175.75C133.905 175.75 134.331 175.716 134.746 175.651L134.746 173.87C134.334 173.953 133.907 173.997 133.471 173.997L128.388 173.997C127.147 173.997 126.141 172.991 126.141 171.75L126.141 160.21C126.141 158.969 127.147 157.963 128.388 157.963L134.746 157.963L134.746 156.21L128.388 156.21C126.179 156.21 124.388 158.001 124.388 160.21L124.388 171.75C124.388 173.89 126.068 175.638 128.182 175.745L128.388 175.75L133.471 175.75Z"/>
</mask>
<path d="M133.471 175.75C133.905 175.75 134.331 175.716 134.746 175.651L134.746 173.87C134.334 173.953 133.907 173.997 133.471 173.997L128.388 173.997C127.147 173.997 126.141 172.991 126.141 171.75L126.141 160.21C126.141 158.969 127.147 157.963 128.388 157.963L134.746 157.963L134.746 156.21L128.388 156.21C126.179 156.21 124.388 158.001 124.388 160.21L124.388 171.75C124.388 173.89 126.068 175.638 128.182 175.745L128.388 175.75L133.471 175.75Z" fill="#FF7272"/>
<path d="M134.746 175.651L135.746 175.651L135.746 176.507L134.901 176.639L134.746 175.651ZM134.746 173.87L134.549 172.89L135.746 172.649L135.746 173.87L134.746 173.87ZM128.388 157.963L128.388 156.963L128.388 156.963L128.388 157.963ZM134.746 157.963L135.746 157.963L135.746 158.963L134.746 158.963L134.746 157.963ZM134.746 156.21L134.746 155.21L135.746 155.21L135.746 156.21L134.746 156.21ZM128.388 156.21L128.388 155.21L128.388 155.21L128.388 156.21ZM128.182 175.745L128.158 176.745L128.144 176.745L128.131 176.744L128.182 175.745ZM128.388 175.75L128.388 176.75L128.376 176.75L128.364 176.75L128.388 175.75ZM133.471 175.75L133.471 174.75C133.853 174.75 134.227 174.72 134.591 174.663L134.746 175.651L134.901 176.639C134.434 176.712 133.956 176.75 133.471 176.75L133.471 175.75ZM134.746 175.651L133.746 175.651L133.746 173.87L134.746 173.87L135.746 173.87L135.746 175.651L134.746 175.651ZM134.746 173.87L134.944 174.85C134.467 174.946 133.975 174.997 133.471 174.997L133.471 173.997L133.471 172.997C133.84 172.997 134.201 172.96 134.549 172.89L134.746 173.87ZM133.471 173.997L133.471 174.997L128.388 174.997L128.388 173.997L128.388 172.997L133.471 172.997L133.471 173.997ZM128.388 173.997L128.388 174.997C126.594 174.997 125.141 173.543 125.141 171.75L126.141 171.75L127.141 171.75C127.141 172.439 127.699 172.997 128.388 172.997L128.388 173.997ZM126.141 171.75L125.141 171.75L125.141 160.21L126.141 160.21L127.141 160.21L127.141 171.75L126.141 171.75ZM126.141 160.21L125.141 160.21C125.141 158.417 126.594 156.963 128.388 156.963L128.388 157.963L128.388 158.963C127.699 158.963 127.141 159.521 127.141 160.21L126.141 160.21ZM128.388 157.963L128.388 156.963L134.746 156.963L134.746 157.963L134.746 158.963L128.388 158.963L128.388 157.963ZM134.746 157.963L133.746 157.963L133.746 156.21L134.746 156.21L135.746 156.21L135.746 157.963L134.746 157.963ZM134.746 156.21L134.746 157.21L128.388 157.21L128.388 156.21L128.388 155.21L134.746 155.21L134.746 156.21ZM128.388 156.21L128.388 157.21C126.731 157.21 125.388 158.553 125.388 160.21L124.388 160.21L123.388 160.21C123.388 157.449 125.626 155.21 128.388 155.21L128.388 156.21ZM124.388 160.21L125.388 160.21L125.388 171.75L124.388 171.75L123.388 171.75L123.388 160.21L124.388 160.21ZM124.388 171.75L125.388 171.75C125.388 173.355 126.648 174.666 128.232 174.746L128.182 175.745L128.131 176.744C125.488 176.61 123.388 174.425 123.388 171.75L124.388 171.75ZM128.182 175.745L128.205 174.745L128.411 174.75L128.388 175.75L128.364 176.75L128.158 176.745L128.182 175.745ZM128.388 175.75L128.388 174.75L133.471 174.75L133.471 175.75L133.471 176.75L128.388 176.75L128.388 175.75Z" fill="#FF7272" mask="url(#badge-glyph-dof)"/>
<g transform="matrix(0.897642 0 0 0.897642 10.267 13.574)">
<path d="M99.6523 160.628C101.363 157.666 105.637 157.666 107.348 160.628L115.706 175.104C117.416 178.066 115.278 181.769 111.857 181.769H95.1426C91.722 181.769 89.5837 178.066 91.2939 175.104L99.6523 160.628Z" fill="#FF7272" stroke="#FF7272" stroke-width="2.96229" mask="url(#excl-cut)"/>
</g>
</g>
</svg>
