<svg width="206" height="206" viewBox="0 0 206 206" fill="none" xmlns="http://www.w3.org/2000/svg">
<rect width="206" height="206" rx="46" fill="black"/>
<path d="M156.662 93.2947C156.662 88.454 155.068 84.0521 152.314 80.5616L123.155 109.707C126.706 112.462 131.114 114.055 135.895 114.055C147.412 114.048 156.722 104.745 156.662 93.2947ZM69.9254 113.987C58.4686 114.048 49.1585 104.738 49.1585 93.2272C49.1585 88.4539 50.752 84.0453 53.5059 80.4942L82.6654 109.64C79.1748 112.394 74.7667 113.987 69.9254 113.987ZM47.3829 74.4923C43.0948 79.6367 40.5231 86.1248 40.5231 93.3486C40.5231 109.572 53.6949 122.737 69.9254 122.737C77.0887 122.737 83.6449 120.165 88.7897 115.878L102.941 130.022L117.091 115.878C122.236 120.165 128.731 122.737 135.955 122.737C152.186 122.737 165.358 109.572 165.358 93.3486C165.358 86.1855 162.786 79.6301 158.498 74.4923L165.115 67.8827L171.421 61.577C178.774 73.6957 183 87.8396 183 103.03C183 147.238 147.169 183 103.002 183C58.8397 183 23.0025 147.177 23.0025 103.03C22.8811 87.7856 27.1071 73.6416 34.4594 61.577L47.3829 74.4923ZM103.002 117.782L166.466 54.3464C164.69 52.0779 162.793 49.8769 160.828 47.7976C146.252 32.5531 125.726 23 102.941 23C80.1543 23 59.5751 32.5531 45.0526 47.7976C43.0341 49.8162 41.1301 52.0847 39.5366 54.2856L103.002 117.782ZM152.132 53.7995L102.947 102.969L53.7625 53.7995C66.806 40.6345 84.205 33.4105 102.947 33.4105C121.69 33.4105 139.021 40.6345 152.132 53.7995Z" fill="white"/>
<path d="M190 180C190 187.732 183.732 194 176 194L87 194C79.268 194 73 187.732 73 180L73 151C73 143.268 79.268 137 87 137L176 137C183.732 137 190 143.268 190 151L190 180Z" fill="black"/>
<path d="M164.499 174.5C159.528 174.5 155.499 170.47 155.499 165.5C155.499 160.529 159.528 156.499 164.499 156.499C169.47 156.499 173.5 160.529 173.5 165.5C173.5 170.471 169.47 174.5 164.499 174.5Z" fill="white" stroke="white"/>
<path d="M90 187.5L126.388 187.5C131.082 187.5 134.888 183.694 134.888 179L134.888 153C134.888 148.306 131.082 144.5 126.388 144.5L90 144.5C85.3056 144.5 81.5 148.306 81.5 153L81.5 179C81.5 183.694 85.3056 187.5 90 187.5Z" stroke="#FFC472" stroke-width="3"/>
<mask id="badge-glyph-clf1" maskUnits="userSpaceOnUse" x="123.388" y="154.75" width="13" height="22" fill="black">
<rect fill="white" x="123.388" y="154.75" width="13" height="22"/>
<path d="M133.471 175.75C133.905 175.75 134.331 175.716 134.746 175.651L134.746 173.87C134.334 173.953 133.907 173.997 133.471 173.997L128.388 173.997C127.147 173.997 126.141 172.991 126.141 171.75L126.141 160.21C126.141 158.969 127.147 157.963 128.388 157.963L134.746 157.963L134.746 156.21L128.388 156.21C126.179 156.21 124.388 158.001 124.388 160.21L124.388 171.75C124.388 173.89 126.068 175.638 128.182 175.745L128.388 175.75L133.471 175.75Z"/>
</mask>
<path d="M133.471 175.75C133.905 175.75 134.331 175.716 134.746 175.651L134.746 173.87C134.334 173.953 133.907 173.997 133.471 173.997L128.388 173.997C127.147 173.997 126.141 172.991 126.141 171.75L126.141 160.21C126.141 158.969 127.147 157.963 128.388 157.963L134.746 157.963L134.746 156.21L128.388 156.21C126.179 156.21 124.388 158.001 124.388 160.21L124.388 171.75C124.388 173.89 126.068 175.638 128.182 175.745L128.388 175.75L133.471 175.75Z" fill="#FFC472"/>
<path d="M134.746 175.651L135.746 175.651L135.746 176.507L134.901 176.639L134.746 175.651ZM134.746 173.87L134.549 172.89L135.746 172.649L135.746 173.87L134.746 173.87ZM128.388 157.963L128.388 156.963L128.388 156.963L128.388 157.963ZM134.746 157.963L135.746 157.963L135.746 158.963L134.746 158.963L134.746 157.963ZM134.746 156.21L134.746 155.21L135.746 155.21L135.746 156.21L134.746 156.21ZM128.388 156.21L128.388 155.21L128.388 155.21L128.388 156.21ZM128.182 175.745L128.158 176.745L128.144 176.745L128.131 176.744L128.182 175.745ZM128.388 175.75L128.388 176.75L128.376 176.75L128.364 176.75L128.388 175.75ZM133.471 175.75L133.471 174.75C133.853 174.75 134.227 174.72 134.591 174.663L134.746 175.651L134.901 176.639C134.434 176.712 133.956 176.75 133.471 176.75L133.471 175.75ZM134.746 175.651L133.746 175.651L133.746 173.87L134.746 173.87L135.746 173.87L135.746 175.651L134.746 175.651ZM134.746 173.87L134.944 174.85C134.467 174.946 133.975 174.997 133.471 174.997L133.471 173.997L133.471 172.997C133.84 172.997 134.201 172.96 134.549 172.89L134.746 173.87ZM133.471 173.997L133.471 174.997L128.388 174.997L128.388 173.997L128.388 172.997L133.471 172.997L133.471 173.997ZM128.388 173.997L128.388 174.997C126.594 174.997 125.141 173.543 125.141 171.75L126.141 171.75L127.141 171.75C127.141 172.439 127.699 172.997 128.388 172.997L128.388 173.997ZM126.141 171.75L125.141 171.75L125.141 160.21L126.141 160.21L127.141 160.21L127.141 171.75L126.141 171.75ZM126.141 160.21L125.141 160.21C125.141 158.417 126.594 156.963 128.388 156.963L128.388 157.963L128.388 158.963C127.699 158.963 127.141 159.521 127.141 160.21L126.141 160.21ZM128.388 157.963L128.388 156.963L134.746 156.963L134.746 157.963L134.746 158.963L128.388 158.963L128.388 157.963ZM134.746 157.963L133.746 157.963L133.746 156.21L134.746 156.21L135.746 156.21L135.746 157.963L134.746 157.963ZM134.746 156.21L134.746 157.21L128.388 157.21L128.388 156.21L128.388 155.21L134.746 155.21L134.746 156.21ZM128.388 156.21L128.388 157.21C126.731 157.21 125.388 158.553 125.388 160.21L124.388 160.21L123.388 160.21C123.388 157.449 125.626 155.21 128.388 155.21L128.388 156.21ZM124.388 160.21L125.388 160.21L125.388 171.75L124.388 171.75L123.388 171.75L123.388 160.21L124.388 160.21ZM124.388 171.75L125.388 171.75C125.388 173.355 126.648 174.666 128.232 174.746L128.182 175.745L128.131 176.744C125.488 176.61 123.388 174.425 123.388 171.75L124.388 171.75ZM128.182 175.745L128.205 174.745L128.411 174.75L128.388 175.75L128.364 176.75L128.158 176.745L128.182 175.745ZM128.388 175.75L128.388 174.75L133.471 174.75L133.471 175.75L133.471 176.75L128.388 176.75L128.388 175.75Z" fill="#FFC472" mask="url(#badge-glyph-clf1)"/>
<path d="M120.281 157.836C120.281 158.112 120.057 158.336 119.781 158.336L86.7813 158.336C86.5051 158.336 86.2813 158.112 86.2813 157.836L86.2812 154.836C86.2812 154.56 86.5051 154.336 86.7812 154.336L119.781 154.336C120.057 154.336 120.281 154.56 120.281 154.836L120.281 157.836Z" fill="#FFC472" stroke="#FFC472" stroke-linejoin="round"/>
<path d="M120.281 166.836C120.281 167.112 120.057 167.336 119.781 167.336L86.7813 167.336C86.5051 167.336 86.2813 167.112 86.2813 166.836L86.2812 162.836C86.2812 162.56 86.5051 162.336 86.7812 162.336L119.781 162.336C120.057 162.336 120.281 162.56 120.281 162.836L120.281 166.836Z" fill="#FFC472" stroke="#FFC472" stroke-linejoin="round"/>
<path d="M120.5 176C120.5 176.276 120.276 176.5 120 176.5L87 176.5C86.7239 176.5 86.5 176.276 86.5 176L86.5 172C86.5 171.724 86.7239 171.5 87 171.5L120 171.5C120.276 171.5 120.5 171.724 120.5 172L120.5 176Z" fill="#FFC472" stroke="#FFC472" stroke-linejoin="round"/>
</svg>
