<svg width="206" height="206" viewBox="0 0 206 206" fill="none" xmlns="http://www.w3.org/2000/svg">
<rect width="206" height="206" rx="46" fill="black"/>
<path d="M156.662 93.2947C156.662 88.454 155.068 84.0521 152.314 80.5616L123.155 109.707C126.706 112.462 131.114 114.055 135.895 114.055C147.412 114.048 156.722 104.745 156.662 93.2947ZM69.9254 113.987C58.4686 114.048 49.1585 104.738 49.1585 93.2272C49.1585 88.4539 50.752 84.0453 53.5059 80.4942L82.6654 109.64C79.1748 112.394 74.7667 113.987 69.9254 113.987ZM47.3829 74.4923C43.0948 79.6367 40.5231 86.1248 40.5231 93.3486C40.5231 109.572 53.6949 122.737 69.9254 122.737C77.0887 122.737 83.6449 120.165 88.7897 115.878L102.941 130.022L117.091 115.878C122.236 120.165 128.731 122.737 135.955 122.737C152.186 122.737 165.358 109.572 165.358 93.3486C165.358 86.1855 162.786 79.6301 158.498 74.4923L165.115 67.8827L171.421 61.577C178.774 73.6957 183 87.8396 183 103.03C183 147.238 147.169 183 103.002 183C58.8397 183 23.0025 147.177 23.0025 103.03C22.8811 87.7856 27.1071 73.6416 34.4594 61.577L47.3829 74.4923ZM103.002 117.782L166.466 54.3464C164.69 52.0779 162.793 49.8769 160.828 47.7976C146.252 32.5531 125.726 23 102.941 23C80.1543 23 59.5751 32.5531 45.0526 47.7976C43.0341 49.8162 41.1301 52.0847 39.5366 54.2856L103.002 117.782ZM152.132 53.7995L102.947 102.969L53.7625 53.7995C66.806 40.6345 84.205 33.4105 102.947 33.4105C121.69 33.4105 139.021 40.6345 152.132 53.7995Z" fill="white"/>
<path d="M192 165C192 180.464 179.464 193 164 193C148.536 193 136 180.464 136 165C136 149.536 148.536 137 164 137C179.464 137 192 149.536 192 165Z" fill="black"/>
<path d="M164.499 187.5C152.349 187.5 142.499 177.65 142.499 165.5C142.499 153.35 152.349 143.5 164.499 143.5C176.65 143.5 186.5 153.35 186.5 165.5C186.5 177.65 176.65 187.5 164.499 187.5Z" fill="white" stroke="white"/>
<path d="M164.499 187.5C152.349 187.5 142.499 177.65 142.499 165.5C142.499 153.35 152.349 143.5 164.499 143.5C176.65 143.5 186.5 153.35 186.5 165.5C186.5 177.65 176.65 187.5 164.499 187.5Z" fill="white" stroke="white"/>
</svg>
